<svg width="173" height="76" viewBox="0 0 173 76" fill="none" xmlns="http://www.w3.org/2000/svg">
<line x1="77.5" y1="11" x2="77.5" y2="76" stroke="#00449E" stroke-width="3"/>
<path d="M94.72 17.398H102.82L103.81 20.404L102.334 20.908L101.65 18.964H98.158V21.79H101.344V23.338H98.158L98.14 26.434H102.064L102.748 24.58L104.206 25.084L103.216 28H94.702V26.434H96.322L96.34 18.964H94.72V17.398ZM111.273 27.568C110.457 28.06 109.605 28.306 108.717 28.306C106.533 28.306 105.435 27.484 105.423 25.84C105.423 24.208 106.479 23.392 108.591 23.392L110.733 23.41C110.733 22.654 110.583 22.09 110.283 21.718C109.995 21.346 109.581 21.16 109.041 21.16C108.489 21.16 107.979 21.232 107.511 21.376L107.349 22.312L105.891 22.096L106.197 20.296C106.665 20.128 107.133 20.002 107.601 19.918C108.081 19.834 108.561 19.792 109.041 19.792C110.169 19.792 111.027 20.092 111.615 20.692C112.215 21.292 112.515 22.18 112.515 23.356V26.398L114.117 26.92L113.649 28.378L111.273 27.568ZM108.645 24.652C107.709 24.652 107.241 25.042 107.241 25.822C107.241 26.566 107.757 26.938 108.789 26.938C109.521 26.938 110.169 26.74 110.733 26.344V24.652H108.645ZM117.516 20.728C118.452 20.116 119.418 19.81 120.414 19.81C120.858 19.81 121.2 19.858 121.44 19.954L121.746 22.042L120.27 22.348L120.09 21.358C119.706 21.37 119.328 21.436 118.956 21.556C118.596 21.664 118.284 21.808 118.02 21.988L118.002 26.596H119.766V28H114.726V26.596H116.238V21.862L114.51 21.286L114.978 19.864L117.516 20.728ZM122.812 28V26.596H124.324V21.88L122.596 21.286L123.064 19.864L125.512 20.71C125.956 20.41 126.418 20.182 126.898 20.026C127.378 19.87 127.906 19.792 128.482 19.792C129.466 19.792 130.24 20.08 130.804 20.656C131.38 21.232 131.668 22.018 131.668 23.014V26.596H133.162V28H129.112V26.596H129.904V23.284C129.904 22.624 129.748 22.126 129.436 21.79C129.124 21.454 128.68 21.286 128.104 21.286C127.756 21.286 127.402 21.346 127.042 21.466C126.694 21.574 126.376 21.718 126.088 21.898V26.596H126.862V28H122.812ZM141.656 27.046C140.66 27.886 139.562 28.306 138.362 28.306C137.474 28.306 136.7 28.132 136.04 27.784C135.392 27.436 134.888 26.944 134.528 26.308C134.18 25.672 134.006 24.922 134.006 24.058C134.006 23.206 134.174 22.462 134.51 21.826C134.858 21.178 135.332 20.68 135.932 20.332C136.544 19.972 137.252 19.792 138.056 19.792C139.244 19.792 140.18 20.152 140.864 20.872C141.548 21.58 141.89 22.528 141.89 23.716C141.89 23.98 141.866 24.268 141.818 24.58L135.716 24.598C135.776 25.39 136.058 25.972 136.562 26.344C137.078 26.704 137.666 26.884 138.326 26.884C139.334 26.884 140.216 26.584 140.972 25.984L141.656 27.046ZM140.144 23.302C140.132 22.678 139.94 22.174 139.568 21.79C139.208 21.394 138.722 21.196 138.11 21.196C137.498 21.196 136.97 21.394 136.526 21.79C136.082 22.174 135.824 22.684 135.752 23.32L140.144 23.302ZM148.114 21.376C147.886 21.28 147.652 21.208 147.412 21.16C147.184 21.112 146.914 21.088 146.602 21.088C146.17 21.088 145.78 21.178 145.432 21.358C145.096 21.538 144.928 21.802 144.928 22.15C144.928 22.462 145.048 22.708 145.288 22.888C145.528 23.068 145.924 23.188 146.476 23.248L147.412 23.374C148.36 23.482 149.038 23.734 149.446 24.13C149.866 24.514 150.076 25.042 150.076 25.714C150.076 26.278 149.92 26.752 149.608 27.136C149.308 27.52 148.9 27.808 148.384 28C147.868 28.204 147.298 28.306 146.674 28.306C146.026 28.306 145.432 28.234 144.892 28.09C144.352 27.946 143.866 27.748 143.434 27.496L143.128 25.642L144.622 25.354L144.856 26.452C145.384 26.728 145.96 26.866 146.584 26.866C147.088 26.866 147.526 26.776 147.898 26.596C148.282 26.404 148.474 26.122 148.474 25.75C148.474 25.462 148.372 25.24 148.168 25.084C147.964 24.928 147.574 24.814 146.998 24.742L146.08 24.616C145.204 24.508 144.526 24.25 144.046 23.842C143.566 23.422 143.326 22.888 143.326 22.24C143.326 21.712 143.47 21.268 143.758 20.908C144.058 20.536 144.454 20.254 144.946 20.062C145.45 19.87 146.002 19.774 146.602 19.774C147.694 19.774 148.642 20.02 149.446 20.512L149.77 22.24L148.42 22.492L148.114 21.376ZM155.44 28.306C154.924 28.306 154.456 28.204 154.036 28C153.628 27.808 153.298 27.484 153.046 27.028C152.806 26.56 152.686 25.948 152.686 25.192V21.502H151.192V20.098H152.686V18.46L154.414 17.992V20.098H156.61V21.502H154.414V24.508C154.414 25.252 154.498 25.84 154.666 26.272C154.834 26.692 155.158 26.902 155.638 26.902C155.986 26.902 156.394 26.794 156.862 26.578L157.204 27.856C156.928 27.976 156.64 28.078 156.34 28.162C156.04 28.258 155.74 28.306 155.44 28.306ZM99.58 37.398C101.32 37.398 102.682 37.884 103.666 38.856C104.65 39.816 105.142 41.16 105.142 42.888C105.142 44.496 104.662 45.75 103.702 46.65C102.742 47.55 101.416 48 99.724 48H94.702V46.434H96.322V38.964H94.702V37.398H99.58ZM99.4 46.434C100.66 46.434 101.614 46.134 102.262 45.534C102.922 44.934 103.252 44.052 103.252 42.888C103.252 41.604 102.94 40.632 102.316 39.972C101.692 39.3 100.78 38.964 99.58 38.964H98.122V46.434H99.4ZM112.398 47.568C111.582 48.06 110.73 48.306 109.842 48.306C107.658 48.306 106.56 47.484 106.548 45.84C106.548 44.208 107.604 43.392 109.716 43.392L111.858 43.41C111.858 42.654 111.708 42.09 111.408 41.718C111.12 41.346 110.706 41.16 110.166 41.16C109.614 41.16 109.104 41.232 108.636 41.376L108.474 42.312L107.016 42.096L107.322 40.296C107.79 40.128 108.258 40.002 108.726 39.918C109.206 39.834 109.686 39.792 110.166 39.792C111.294 39.792 112.152 40.092 112.74 40.692C113.34 41.292 113.64 42.18 113.64 43.356V46.398L115.242 46.92L114.774 48.378L112.398 47.568ZM109.77 44.652C108.834 44.652 108.366 45.042 108.366 45.822C108.366 46.566 108.882 46.938 109.914 46.938C110.646 46.938 111.294 46.74 111.858 46.344V44.652H109.77ZM119.792 48.306C119.276 48.306 118.808 48.204 118.388 48C117.98 47.808 117.65 47.484 117.398 47.028C117.158 46.56 117.038 45.948 117.038 45.192V41.502H115.544V40.098H117.038V38.46L118.766 37.992V40.098H120.962V41.502H118.766V44.508C118.766 45.252 118.85 45.84 119.018 46.272C119.186 46.692 119.51 46.902 119.99 46.902C120.338 46.902 120.746 46.794 121.214 46.578L121.556 47.856C121.28 47.976 120.992 48.078 120.692 48.162C120.392 48.258 120.092 48.306 119.792 48.306ZM128.518 47.568C127.702 48.06 126.85 48.306 125.962 48.306C123.778 48.306 122.68 47.484 122.668 45.84C122.668 44.208 123.724 43.392 125.836 43.392L127.978 43.41C127.978 42.654 127.828 42.09 127.528 41.718C127.24 41.346 126.826 41.16 126.286 41.16C125.734 41.16 125.224 41.232 124.756 41.376L124.594 42.312L123.136 42.096L123.442 40.296C123.91 40.128 124.378 40.002 124.846 39.918C125.326 39.834 125.806 39.792 126.286 39.792C127.414 39.792 128.272 40.092 128.86 40.692C129.46 41.292 129.76 42.18 129.76 43.356V46.398L131.362 46.92L130.894 48.378L128.518 47.568ZM125.89 44.652C124.954 44.652 124.486 45.042 124.486 45.822C124.486 46.566 125.002 46.938 126.034 46.938C126.766 46.938 127.414 46.74 127.978 46.344V44.652H125.89ZM94.144 68V66.434H95.89L98.734 58.964H97.078V57.398H100.912L104.206 66.434H105.862V68H101.326V66.434H102.352L101.794 64.85H98.086L97.492 66.434H98.59V68H94.144ZM98.572 63.5H101.326L99.994 59.342L98.572 63.5ZM106.692 68V66.596H108.204V61.88L106.476 61.286L106.944 59.864L109.392 60.71C109.836 60.41 110.298 60.182 110.778 60.026C111.258 59.87 111.786 59.792 112.362 59.792C113.346 59.792 114.12 60.08 114.684 60.656C115.26 61.232 115.548 62.018 115.548 63.014V66.596H117.042V68H112.992V66.596H113.784V63.284C113.784 62.624 113.628 62.126 113.316 61.79C113.004 61.454 112.56 61.286 111.984 61.286C111.636 61.286 111.282 61.346 110.922 61.466C110.574 61.574 110.256 61.718 109.968 61.898V66.596H110.742V68H106.692ZM123.965 67.568C123.149 68.06 122.297 68.306 121.409 68.306C119.225 68.306 118.127 67.484 118.115 65.84C118.115 64.208 119.171 63.392 121.283 63.392L123.425 63.41C123.425 62.654 123.275 62.09 122.975 61.718C122.687 61.346 122.273 61.16 121.733 61.16C121.181 61.16 120.671 61.232 120.203 61.376L120.041 62.312L118.583 62.096L118.889 60.296C119.357 60.128 119.825 60.002 120.293 59.918C120.773 59.834 121.253 59.792 121.733 59.792C122.861 59.792 123.719 60.092 124.307 60.692C124.907 61.292 125.207 62.18 125.207 63.356V66.398L126.809 66.92L126.341 68.378L123.965 67.568ZM121.337 64.652C120.401 64.652 119.933 65.042 119.933 65.822C119.933 66.566 120.449 66.938 121.481 66.938C122.213 66.938 122.861 66.74 123.425 66.344V64.652H121.337ZM127.638 68V66.596H129.15V57.974L127.386 57.506L127.818 56.066L130.932 56.93V66.596H132.444V68H127.638ZM135.267 72.212C135.051 72.212 134.823 72.188 134.583 72.14C134.343 72.104 134.097 72.038 133.845 71.942L134.151 70.574C134.343 70.634 134.517 70.682 134.673 70.718C134.841 70.754 135.009 70.772 135.177 70.772C135.489 70.772 135.747 70.712 135.951 70.592C136.167 70.472 136.359 70.25 136.527 69.926C136.707 69.614 136.911 69.158 137.139 68.558L137.175 68.468L133.899 61.502H132.603V60.098H136.707V61.502H135.717L137.877 66.56L139.767 61.502H138.813L138.849 60.098H142.809V61.502H141.459L138.327 69.476C137.943 70.4 137.505 71.084 137.013 71.528C136.533 71.984 135.951 72.212 135.267 72.212ZM147.565 68.306C147.049 68.306 146.581 68.204 146.161 68C145.753 67.808 145.423 67.484 145.171 67.028C144.931 66.56 144.811 65.948 144.811 65.192V61.502H143.317V60.098H144.811V58.46L146.539 57.992V60.098H148.735V61.502H146.539V64.508C146.539 65.252 146.623 65.84 146.791 66.272C146.959 66.692 147.283 66.902 147.763 66.902C148.111 66.902 148.519 66.794 148.987 66.578L149.329 67.856C149.053 67.976 148.765 68.078 148.465 68.162C148.165 68.258 147.865 68.306 147.565 68.306ZM150.477 60.098H153.753V66.596H155.247V68H150.477V66.596H151.971V61.502H150.477V60.098ZM152.673 56.228C153.033 56.228 153.321 56.336 153.537 56.552C153.753 56.768 153.861 57.056 153.861 57.416C153.861 57.764 153.753 58.046 153.537 58.262C153.321 58.478 153.033 58.586 152.673 58.586C152.325 58.586 152.043 58.478 151.827 58.262C151.611 58.046 151.503 57.764 151.503 57.416C151.503 57.056 151.611 56.768 151.827 56.552C152.043 56.336 152.325 56.228 152.673 56.228ZM162.036 61.358C161.568 61.214 161.106 61.142 160.65 61.142C159.882 61.142 159.282 61.388 158.85 61.88C158.418 62.372 158.202 63.104 158.202 64.076C158.202 64.976 158.436 65.666 158.904 66.146C159.372 66.626 159.942 66.866 160.614 66.866C161.418 66.866 162.21 66.59 162.99 66.038L163.728 67.118C163.224 67.49 162.738 67.784 162.27 68C161.814 68.204 161.226 68.306 160.506 68.306C159.27 68.306 158.274 67.94 157.518 67.208C156.774 66.464 156.402 65.42 156.402 64.076C156.402 62.672 156.786 61.604 157.554 60.872C158.334 60.128 159.36 59.756 160.632 59.756C161.112 59.756 161.568 59.804 162 59.9C162.432 59.996 162.9 60.128 163.404 60.296L163.746 62.456L162.288 62.762L162.036 61.358ZM170.052 61.376C169.824 61.28 169.59 61.208 169.35 61.16C169.122 61.112 168.852 61.088 168.54 61.088C168.108 61.088 167.718 61.178 167.37 61.358C167.034 61.538 166.866 61.802 166.866 62.15C166.866 62.462 166.986 62.708 167.226 62.888C167.466 63.068 167.862 63.188 168.414 63.248L169.35 63.374C170.298 63.482 170.976 63.734 171.384 64.13C171.804 64.514 172.014 65.042 172.014 65.714C172.014 66.278 171.858 66.752 171.546 67.136C171.246 67.52 170.838 67.808 170.322 68C169.806 68.204 169.236 68.306 168.612 68.306C167.964 68.306 167.37 68.234 166.83 68.09C166.29 67.946 165.804 67.748 165.372 67.496L165.066 65.642L166.56 65.354L166.794 66.452C167.322 66.728 167.898 66.866 168.522 66.866C169.026 66.866 169.464 66.776 169.836 66.596C170.22 66.404 170.412 66.122 170.412 65.75C170.412 65.462 170.31 65.24 170.106 65.084C169.902 64.928 169.512 64.814 168.936 64.742L168.018 64.616C167.142 64.508 166.464 64.25 165.984 63.842C165.504 63.422 165.264 62.888 165.264 62.24C165.264 61.712 165.408 61.268 165.696 60.908C165.996 60.536 166.392 60.254 166.884 60.062C167.388 59.87 167.94 59.774 168.54 59.774C169.632 59.774 170.58 60.02 171.384 60.512L171.708 62.24L170.358 62.492L170.052 61.376Z" fill="#1A3988"/>
<path d="M21.48 40.932H26.88L27.54 42.936L26.556 43.272L26.1 41.976H23.772V43.86H25.896V44.892H23.772L23.76 46.956H26.376L26.832 45.72L27.804 46.056L27.144 48H21.468V46.956H22.548L22.56 41.976H21.48V40.932ZM31.9036 40.932C33.0636 40.932 33.9716 41.256 34.6276 41.904C35.2836 42.544 35.6116 43.44 35.6116 44.592C35.6116 45.664 35.2916 46.5 34.6516 47.1C34.0116 47.7 33.1276 48 31.9996 48H28.6516V46.956H29.7316V41.976H28.6516V40.932H31.9036ZM31.7836 46.956C32.6236 46.956 33.2596 46.756 33.6916 46.356C34.1316 45.956 34.3516 45.368 34.3516 44.592C34.3516 43.736 34.1436 43.088 33.7276 42.648C33.3116 42.2 32.7036 41.976 31.9036 41.976H30.9316V46.956H31.7836ZM35.5804 48V46.956H36.7444L38.6404 41.976H37.5364V40.932H40.0924L42.2884 46.956H43.3924V48H40.3684V46.956H41.0524L40.6804 45.9H38.2084L37.8124 46.956H38.5444V48H35.5804ZM38.5324 45H40.3684L39.4804 42.228L38.5324 45Z" fill="#185E9F"/>
<path d="M24.9538 11.6622C31.2584 10.0114 37.9856 10.4493 44.1714 12.9131C50.3571 15.3769 55.6838 19.7402 59.388 25.3775C63.0922 31.0149 64.9837 37.6369 64.7915 44.2945C64.5992 50.9521 62.3331 57.3035 58.3179 62.4384L46.9202 53.1022C49.0767 50.3444 50.2938 46.9332 50.397 43.3576C50.5003 39.7819 49.4894 36.2524 47.5 33.2247C45.5106 30.1971 42.3222 28.048 39 26.7247C35.6778 25.4015 32.3872 24.945 29.0012 25.8316L24.9538 11.6622Z" fill="#00449E"/>
<path d="M9 20.7247L14 16.7247L17.5 14.7247L21 13.2247L22.5 16.7247L24 20.7247L25 24.2247L25.5 25.7247V26.7247L22.5 28.2247L20.5 29.7247L17.5 32.2247L15 36.7247L9 35.7247L6.5 35.2247L1 34.2247L2.5 29.7247L5.5 25.2247L9 20.7247Z" fill="#00449E"/>
<path d="M1.75 42.8337L2.01943 40.6783L4.28294 40.9612L4.30437 40.9639L4.32587 40.966L9.24071 41.4575L11.55 41.9194L11.75 41.9861V45.2247V45.4402L11.8023 45.6492L13.3023 51.6492L13.3391 51.7966L13.4008 51.9355L14.9127 55.3372L8.14511 62.1047L5.48234 58.7763L3.15116 54.1139L2.22338 50.4028L1.75 46.6158V42.8337Z" stroke="#00449E" stroke-width="3.5"/>
<path d="M13 66.5806L14 65.5806L16 63.5806L20.5 59.5806V71.5806L19.5 71.0806L16 68.5806L14.5 67.5806L13 66.5806Z" fill="#00449E"/>
<path d="M48 69.7247L48 67.7001L48 64.7001L47.9189 58.6602L54 64.2247L54 64.7247L53.5 65.2247L51.0573 67.428L50 68.2247L48.5 69.2247L48 69.7247Z" fill="#00449E"/>
<path d="M24 61.2247L26 61.7247L27.5 62.2247L28.5 62.5391V73.7247L24 72.7247V72.2247V70.7247V67.2247V61.2247Z" fill="#00449E"/>
<path d="M32 62.7247H33.5L36.5 62.2247V63.7247V73.7247L32.5 74.2247H32V72.2247V68.7247V62.7247Z" fill="#00449E"/>
<path d="M40 61.2247L42 60.2247L43.5 59.2247L44 58.7247L44.5 58.2247V71.2247L43.5 71.7247L42.5 72.2247L41.5 72.7247L40 73.2247V72.7247V71.7247V70.2247V66.7247V61.2247Z" fill="#00449E"/>
</svg>
